# xmcd CD database file
#
# Track frame offsets:
#	150
#	17740
#	34662
#	52193
#	65584
#	79807
#	95650
#	107319
#	126296
#	143568
#	163818
#	176802
#	189949
#	202750
#	220674
#	235436
#	250807
#	264411
#
# Disc length: 3706 seconds
#
# Revision: 4
# Processed by: cddbd v1.5.2PL0 Copyright (c) Steve Scherf et al.
# Submitted via: CDex 1.74
#
DISCID=f90e7812
DTITLE=The Best Of Kenny Rogers - The Best Of
DYEAR=2009
DGENRE=Country
TTITLE0=Kenny Rogers - Lady
TTITLE1=Kenny Rogers - Desperado
TTITLE2=Kenny Rogers - Lay Down Beside Me
TTITLE3=Kenny Rogers - Puttin' In Overtime At Home
TTITLE4=Kenny Rogers - The Son Of Hickory Holler's Tramp
TTITLE5=Kenny Rogers with Dottie West - Just the Way You Are
TTITLE6=Kenny Rogers - Gideon Tanner
TTITLE7=Kenny Rogers - No Good Texas Rounder
TTITLE8=Kenny Rogers with Sheena Easton - We've Got Tonight
TTITLE9=Kenny Rogers - Sayin' Goodbye
TTITLE10=Kenny Rogers - Somebody Help Me
TTITLE11=Kenny Rogers with Dottie West - Together Again
TTITLE12=Kenny Rogers - Laura (What's He Got That I Ain't Got)
TTITLE13=Kenny Rogers - Scarlet Fever
TTITLE14=Kenny Rogers - A Love Song
TTITLE15=Kenny Rogers - Love Is What We Make It
TTITLE16=Kenny Rogers with Dottie West - What Are We Doin' In Love
TTITLE17=Kenny Rogers - I Wish That I Could Hurt That Way Again
EXTD=YEAR: 2009
EXTT0=
EXTT1=
EXTT2=
EXTT3=
EXTT4=
EXTT5=
EXTT6=
EXTT7=
EXTT8=
EXTT9=
EXTT10=
EXTT11=
EXTT12=
EXTT13=
EXTT14=
EXTT15=
EXTT16=
EXTT17=
PLAYORDER=
